<svg width="283" height="93" viewBox="0 0 283 93" fill="none" xmlns="http://www.w3.org/2000/svg">
<g clip-path="url(#clip0_2614_66083)">
<path d="M111.241 25.5684V29.4084H102.431V47.0584H98.5912V29.4084H89.7812V25.5684H111.241Z" fill="white"/>
<path d="M114.328 47.0193V25.5293H118.168V47.0193H114.328Z" fill="white"/>
<path d="M141.951 47.0193H137.651L135.691 43.1793L130.991 33.9693L126.291 43.1793L124.331 47.0193H120.031L121.991 43.1793L130.991 25.5293L139.981 43.1793L141.941 47.0193H141.951Z" fill="white"/>
<path d="M165.263 25.5391V47.0291H161.423V33.3391L157.653 36.2291L154.523 38.6591L151.393 36.2291L147.613 33.3391V47.0291H143.773V25.5391L147.613 28.4891L154.523 33.7991L161.423 28.4891L165.263 25.5391Z" fill="white"/>
<path d="M189.035 36.2791C189.035 42.1991 184.215 47.0191 178.295 47.0191C172.375 47.0191 167.555 42.1991 167.555 36.2791C167.555 30.3591 172.375 25.5391 178.295 25.5391C184.215 25.5391 189.035 30.3591 189.035 36.2791ZM185.195 36.2791C185.195 32.4691 182.095 29.3691 178.295 29.3691C174.495 29.3691 171.385 32.4691 171.385 36.2791C171.385 40.0891 174.485 43.1891 178.295 43.1891C182.105 43.1891 185.195 40.0891 185.195 36.2791Z" fill="white"/>
<path d="M212.81 25.5688V47.0588L208.97 44.1088L195.16 33.4588V47.0588H191.32V25.6388L195.16 28.5888L208.97 39.2388V25.5488L212.81 25.5788V25.5688Z" fill="white"/>
<path d="M226.585 25.5693C232.505 25.5693 237.325 30.3593 237.325 36.2793C237.325 38.9193 236.375 41.3393 234.775 43.2193C234.585 43.4293 234.375 43.6493 234.165 43.8593C232.235 45.8193 229.565 47.0193 226.615 47.0193H215.875V25.5293L226.585 25.5593V25.5693ZM219.675 43.2193H226.585C230.395 43.2193 233.495 40.1193 233.495 36.3093C233.495 32.4993 230.395 29.3993 226.585 29.3993H219.675V43.2093V43.2193Z" fill="white"/>
<path d="M256.888 31.4891V31.3691C256.888 30.2991 255.997 29.4091 254.927 29.4091H246.208C245.138 29.4091 244.247 30.2991 244.247 31.3691V31.4891C244.247 32.5591 245.138 33.4491 246.208 33.4491H253.938C255.938 33.4491 257.717 34.3091 258.938 35.6591C259.028 35.7491 259.087 35.8491 259.188 35.9391C260.137 37.1091 260.717 38.6091 260.717 40.2391C260.717 43.9891 257.678 47.0191 253.938 47.0191H247.217C243.467 47.0191 240.438 43.9791 240.438 40.2391H244.277C244.277 41.8691 245.597 43.1891 247.227 43.1891H253.947C255.577 43.1891 256.927 41.8691 256.927 40.2391C256.927 38.6091 255.577 37.2891 253.947 37.2891H246.217C244.647 37.2891 243.237 36.6791 242.197 35.6591C241.917 35.3791 241.678 35.0791 241.458 34.7391C240.818 33.8191 240.447 32.6791 240.447 31.4591V31.3391C240.447 28.1491 243.027 25.5391 246.217 25.5391H254.938C258.128 25.5391 260.737 28.1491 260.737 31.3391V31.4591L256.897 31.4891H256.888Z" fill="white"/>
<path d="M78.697 37.5002L66.927 22.1502C66.607 21.7402 66.117 21.4902 65.597 21.4902H34.387C33.857 21.4902 33.347 21.7402 33.037 22.1802L21.777 37.5302C21.317 38.1602 21.347 39.0302 21.867 39.6202L48.987 70.8302C49.307 71.2002 49.767 71.4102 50.257 71.4102C50.747 71.4102 51.207 71.2002 51.527 70.8302L78.647 39.6202C79.167 39.0202 79.197 38.1302 78.717 37.5002H78.697ZM35.227 24.8502H64.757L73.947 36.8402H61.097C60.367 36.8402 59.717 37.3102 59.497 38.0102L50.227 66.9502L40.957 38.0102C40.737 37.3102 40.087 36.8402 39.357 36.8402H26.417L35.207 24.8502H35.227ZM73.677 40.2002L55.707 60.8802L62.327 40.2002H73.677ZM44.767 60.8802L26.797 40.2002H38.147L44.767 60.8802Z" fill="white"/>
<path d="M100.63 57.6387V59.3587H96.47V67.2787H94.66V59.3587H90.5V57.6387H100.62H100.63Z" fill="white"/>
<path d="M110.913 62.4489C110.913 65.1089 108.643 67.2689 105.843 67.2689C103.043 67.2689 100.773 65.1089 100.773 62.4489C100.773 59.7889 103.043 57.6289 105.843 57.6289C108.643 57.6289 110.913 59.7889 110.913 62.4489ZM109.103 62.4489C109.103 60.7389 107.643 59.3489 105.843 59.3489C104.043 59.3489 102.583 60.7389 102.583 62.4489C102.583 64.1589 104.043 65.5489 105.843 65.5489C107.643 65.5489 109.103 64.1589 109.103 62.4489Z" fill="white"/>
<path d="M121.161 57.6387V59.3587H117.001V67.2787H115.191V59.3587H111.031V57.6387H121.151H121.161Z" fill="white"/>
<path d="M129.516 67.2689H127.486L126.556 65.5489L124.336 61.4189L122.116 65.5489L121.186 67.2689H119.156L120.086 65.5489L124.326 57.6289L128.566 65.5489L129.496 67.2689H129.516Z" fill="white"/>
<path d="M138.373 65.5687V67.2887H133.233C132.723 67.2887 132.253 67.1787 131.813 66.9687C131.173 66.6687 130.653 66.1687 130.353 65.5587C130.133 65.1487 130.023 64.6887 130.023 64.2087V57.6387H131.833V64.3787C131.923 64.9887 132.423 65.4687 133.063 65.5487H138.373V65.5687Z" fill="white"/>
<path d="M156.989 57.6387V59.3587H152.829V67.2787H151.019V59.3587H146.859V57.6387H156.979H156.989Z" fill="white"/>
<path d="M167.288 62.4489C167.288 65.1089 165.018 67.2689 162.218 67.2689C159.418 67.2689 157.148 65.1089 157.148 62.4489C157.148 59.7889 159.418 57.6289 162.218 57.6289C165.018 57.6289 167.288 59.7889 167.288 62.4489ZM165.478 62.4489C165.478 60.7389 164.018 59.3489 162.218 59.3489C160.418 59.3489 158.958 60.7389 158.958 62.4489C158.958 64.1589 160.418 65.5489 162.218 65.5489C164.018 65.5489 165.478 64.1589 165.478 62.4489Z" fill="white"/>
<path d="M174.093 61.4994L178.483 67.2694H176.253L172.753 62.6694L170.193 64.8894V67.2694H168.383V57.6194H170.193V62.5494L171.683 61.2494L173.033 60.0794L175.853 57.6094H178.533L174.103 61.4794L174.093 61.4994Z" fill="white"/>
<path d="M180.907 60.2289V61.1289H187.427V62.8489H180.907V64.6689C180.907 65.1489 181.327 65.5489 181.837 65.5489H189.237V67.2689H181.837C180.327 67.2689 179.117 66.0989 179.117 64.6689V60.2289C179.117 58.7989 180.337 57.6289 181.837 57.6289H189.237V59.3489H181.837C181.327 59.3489 180.907 59.7489 180.907 60.2289Z" fill="white"/>
<path d="M200.827 57.6394V67.2794L199.018 65.9594L192.497 61.1794V67.2794H190.688V57.6594L192.497 58.9794L199.018 63.7594V57.6094H200.827V57.6394Z" fill="white"/>
<path d="M202.281 67.2691V57.6191H204.091V67.2691H202.281Z" fill="white"/>
<path d="M215.707 65.5489V67.2689H207.857L205.567 67.2789H205.577L206.967 65.5389L209.457 62.4689L210.597 61.0589L211.987 59.3489H205.547V57.6289H215.657L214.257 59.3489L211.737 62.4589L210.597 63.8689L209.237 65.5389H215.707V65.5489Z" fill="white"/>
<path d="M226.883 67.2689H224.853L223.923 65.5489L221.703 61.4189L219.483 65.5489L218.553 67.2689H216.523L217.453 65.5489L221.693 57.6289L225.933 65.5489L226.863 67.2689H226.883Z" fill="white"/>
<path d="M234.997 57.6387V59.3587H230.837V67.2787H229.027V59.3587H224.867V57.6387H234.987H234.997Z" fill="white"/>
<path d="M236.469 67.2691V57.6191H238.279V67.2691H236.469Z" fill="white"/>
<path d="M249.507 62.4489C249.507 65.1089 247.237 67.2689 244.437 67.2689C241.637 67.2689 239.367 65.1089 239.367 62.4489C239.367 59.7889 241.637 57.6289 244.437 57.6289C247.237 57.6289 249.507 59.7889 249.507 62.4489ZM247.697 62.4489C247.697 60.7389 246.237 59.3489 244.437 59.3489C242.637 59.3489 241.177 60.7389 241.177 62.4489C241.177 64.1589 242.637 65.5489 244.437 65.5489C246.237 65.5489 247.697 64.1589 247.697 62.4489Z" fill="white"/>
<path d="M260.749 57.6394V67.2794L258.939 65.9594L252.419 61.1794V67.2794H250.609V57.6594L252.419 58.9794L258.939 63.7594V57.6094H260.749V57.6394Z" fill="white"/>
</g>
<defs>
<clipPath id="clip0_2614_66083">
<rect width="282.21" height="92.9" fill="white"/>
</clipPath>
</defs>
</svg>
